<svg width="28" height="28" viewBox="0 0 28 28" fill="none" xmlns="http://www.w3.org/2000/svg">
<path fill-rule="evenodd" clip-rule="evenodd" d="M22.795 5.83193C22.3907 5.17272 21.6652 4.82508 20.9375 4.91368C20.7664 4.93451 20.4724 5.04779 19.8999 5.45477C19.3414 5.85182 18.6353 6.43912 17.6406 7.26762L16.4789 8.2352V16.5191L17.8558 17.4895C18.8256 18.173 19.5101 18.6546 20.0502 18.9758C20.5996 19.3025 20.8814 19.388 21.0517 19.3981C21.7562 19.4401 22.4384 19.0783 22.8157 18.4351C22.9113 18.2721 23.0028 17.9722 23.0515 17.3196C23.0994 16.6772 23.1 15.8217 23.1 14.6135V9.97857C23.1 8.6629 23.0994 7.72673 23.0477 7.02808C22.9948 6.3134 22.8948 5.99464 22.795 5.83193ZM14.6789 16.0859V8.71354H8.25658C7.58281 8.71354 7.12384 8.71405 6.76691 8.7391C6.41857 8.76355 6.23491 8.80815 6.10452 8.8637C5.63364 9.06432 5.25172 9.45274 5.05084 9.95156C4.99338 10.0943 4.94907 10.2915 4.92501 10.6543C4.90044 11.0246 4.89998 11.4998 4.89998 12.1917V13.7377C4.89998 14.0623 4.90083 14.1674 4.90778 14.2479C4.99346 15.2399 5.7516 15.9944 6.6685 16.0781C6.74264 16.0849 6.8407 16.0859 7.15788 16.0859H14.6789ZM15.2532 6.91354L16.5194 5.85888C17.4764 5.06174 18.2354 4.42957 18.857 3.98768C19.4713 3.55099 20.0763 3.20524 20.7199 3.12688C22.1648 2.95098 23.5663 3.64683 24.3294 4.89073C24.6673 5.44169 24.7862 6.13036 24.8428 6.89529C24.9 7.6684 24.9 8.67147 24.9 9.93985V14.6518C24.9 15.8132 24.9 16.736 24.8465 17.4535C24.7932 18.1686 24.6807 18.8133 24.3683 19.3459C23.6576 20.5575 22.3427 21.2782 20.9447 21.195C20.3265 21.1581 19.7354 20.8828 19.1302 20.5229C18.5228 20.1617 17.7813 19.6391 16.8514 18.9838L15.2936 17.8859H14.9V21.356C14.9 23.2892 13.3699 24.9 11.4295 24.9C10.7733 24.9 10.117 24.7117 9.55571 24.3307C8.30866 23.4842 7.40319 22.7153 6.87461 21.5313C6.44227 20.5629 6.29922 19.3942 6.26612 17.8411C4.5617 17.5732 3.26505 16.1463 3.11446 14.4028C3.09991 14.2344 3.09994 14.0449 3.09998 13.7804C3.09998 13.7664 3.09998 13.7522 3.09998 13.7377L3.09998 12.1613C3.09998 11.5072 3.09997 10.9721 3.12896 10.5351C3.1589 10.0838 3.2226 9.67287 3.38115 9.27916C3.75629 8.34761 4.47924 7.5996 5.399 7.20773C5.79011 7.0411 6.19775 6.97462 6.6409 6.94352C7.06832 6.91352 7.59069 6.91353 8.22478 6.91354L15.2532 6.91354ZM8.06808 17.8859C8.10397 19.3237 8.2377 20.1691 8.51825 20.7975C8.83259 21.5016 9.37876 22.0351 10.5666 22.8414C10.815 23.01 11.1155 23.1 11.4295 23.1C12.3283 23.1 13.1 22.3433 13.1 21.356V17.8859H8.06808Z" fill="#007AFF"/>
</svg>
