<svg width="28" height="28" viewBox="0 0 28 28" fill="none" xmlns="http://www.w3.org/2000/svg">
<path fill-rule="evenodd" clip-rule="evenodd" d="M7.14583 20.6404C7.42455 20.0448 7.59714 19.3532 7.59714 18.5054C5.80513 17.04 4.68731 14.9661 4.68731 12.6667C4.68731 8.22622 8.85619 4.62649 13.9988 4.62649C19.1413 4.62649 23.3102 8.22622 23.3102 12.6667C23.3102 17.1072 19.1413 20.7069 13.9988 20.7069C13.1949 20.7069 12.4149 20.619 11.6709 20.4536C11.1605 21.0129 10.1632 21.7412 8.48028 22.3049C7.60482 22.5982 6.54381 22.8469 5.26928 23.0042C5.98501 22.2978 6.70074 21.5915 7.14583 20.6404ZM12.2721 22.5692C12.8361 22.6459 13.4128 22.6855 13.9988 22.6855C19.9515 22.6855 25.2888 18.4626 25.2888 12.6667C25.2888 6.87086 19.9515 2.64792 13.9988 2.64792C8.04602 2.64792 2.70874 6.87086 2.70874 12.6667C2.70874 15.2532 3.80632 17.5651 5.53134 19.2996C5.33092 20.1237 4.78405 20.7032 3.87952 21.5959C3.27659 22.1908 3.1193 23.1036 3.48833 23.8661C3.85735 24.6286 4.6708 25.0716 5.51151 24.9678C8.74807 24.5686 10.9258 23.6016 12.2721 22.5692Z" fill="#007AFF"/>
</svg>
