<svg width="28" height="28" viewBox="0 0 28 28" fill="none" xmlns="http://www.w3.org/2000/svg">
<path fill-rule="evenodd" clip-rule="evenodd" d="M8.16543 19.5877C8.37367 19.1029 8.50033 18.5443 8.50033 17.8712C6.96063 16.6121 6.0002 14.8301 6.0002 12.8545C6.0002 9.03921 9.58211 5.9463 14.0006 5.9463C18.4191 5.9463 22.0011 9.03921 22.0011 12.8545C22.0011 16.6698 18.4191 19.7627 14.0006 19.7627C13.31 19.7627 12.6398 19.6871 12.0005 19.5451C11.5774 20.0086 10.765 20.6074 9.40978 21.084C8.62957 21.3584 7.66948 21.5922 6.50022 21.7365C7.14438 21.1008 7.78853 20.4651 8.16543 19.5877ZM12.5448 21.4674C13.0207 21.5303 13.5069 21.5627 14.0006 21.5627C19.1562 21.5627 23.8011 17.9028 23.8011 12.8545C23.8011 7.80617 19.1562 4.1463 14.0006 4.1463C8.84506 4.1463 4.2002 7.80617 4.2002 12.8545C4.2002 15.0864 5.13897 17.0813 6.61453 18.5836C6.43913 19.2337 5.99107 19.71 5.23589 20.4553C4.68738 20.9966 4.54429 21.827 4.88001 22.5206C5.21572 23.2143 5.95576 23.6173 6.72059 23.5229C9.48821 23.1815 11.3684 22.3581 12.5448 21.4674Z" fill="#A2ACB0"/>
</svg>
