<svg width="28" height="28" viewBox="0 0 28 28" fill="none" xmlns="http://www.w3.org/2000/svg">
<path fill-rule="evenodd" clip-rule="evenodd" d="M4.39147 10.9803C4.12419 11.8686 3.98077 12.8089 3.98077 13.7814C3.98077 14.754 4.12419 15.6943 4.39147 16.5826H8.75315C8.64599 15.7171 8.58672 14.7842 8.58672 13.7814C8.58672 12.7787 8.64599 11.8458 8.75315 10.9803H4.39147ZM5.23616 9.00177H9.10333C9.56701 7.02279 10.2943 5.48963 11.0824 4.35719C8.57416 5.10117 6.48512 6.79068 5.23616 9.00177ZM13.9657 4.12059C13.1377 4.75846 11.8713 6.2676 11.1403 9.00177H16.7911C16.06 6.2676 14.7937 4.75846 13.9657 4.12059ZM17.1844 10.9803H10.747C10.6314 11.8259 10.5653 12.7576 10.5653 13.7814C10.5653 14.8053 10.6314 15.737 10.747 16.5826H17.1844C17.3 15.737 17.3661 14.8053 17.3661 13.7814C17.3661 12.7576 17.3 11.8259 17.1844 10.9803ZM19.1782 16.5826C19.2854 15.7171 19.3447 14.7842 19.3447 13.7814C19.3447 12.7787 19.2854 11.8458 19.1782 10.9803H23.5405C23.8072 11.8673 23.9506 12.8072 23.9506 13.7814C23.9506 14.7557 23.8072 15.6956 23.5405 16.5826H19.1782ZM16.7911 18.5611H11.1403C11.8713 21.2953 13.1377 22.8044 13.9657 23.4423C14.7937 22.8044 16.06 21.2953 16.7911 18.5611ZM11.0824 23.2057C10.2943 22.0733 9.56701 20.5401 9.10333 18.5611L5.23616 18.5611C6.48512 20.7722 8.57416 22.4617 11.0824 23.2057ZM16.8492 23.2054C17.6372 22.073 18.3644 20.5399 18.828 18.5611H22.6959C21.4468 20.7721 19.3567 22.4613 16.8492 23.2054ZM22.6959 9.00177H18.828C18.3644 7.02298 17.6372 5.48992 16.8492 4.35751C19.3567 5.10161 21.4468 6.79084 22.6959 9.00177ZM2.0022 13.7814C2.0022 7.24168 7.37084 1.96246 13.9657 1.96246C19.0934 1.96246 23.474 5.15093 25.1741 9.64072C25.6625 10.9305 25.9292 12.3263 25.9292 13.7814C25.9292 15.2366 25.6625 16.6324 25.1741 17.9222C23.474 22.412 19.0934 25.6004 13.9657 25.6004C7.37084 25.6004 2.0022 20.3212 2.0022 13.7814Z" fill="#007AFF"/>
</svg>
