<svg width="28" height="28" viewBox="0 0 28 28" fill="none" xmlns="http://www.w3.org/2000/svg">
<path fill-rule="evenodd" clip-rule="evenodd" d="M13.1274 0.97838C13.6822 0.883102 14.2492 0.883102 14.804 0.97838C15.432 1.08624 16.0229 1.35403 16.8772 1.74117C16.9142 1.75792 16.9516 1.7749 16.9896 1.79209L21.9801 4.05182C22.0178 4.06891 22.0551 4.08579 22.092 4.10248C23.0579 4.53941 23.7368 4.84652 24.3426 5.42011C24.818 5.87028 25.321 6.62035 25.5571 7.23107C25.8575 8.00828 25.8792 8.61666 25.9098 9.47512C25.9106 9.49876 25.9115 9.52259 25.9123 9.54661C26.0306 12.8404 25.5435 16.8085 23.8776 20.1584C22.1925 23.5467 19.2854 26.3158 14.6552 27.0277L14.6474 27.0289C14.5 27.0516 14.3885 27.0687 14.2073 27.0798C14.0779 27.0877 13.8534 27.0877 13.724 27.0798C13.5428 27.0687 13.4313 27.0516 13.284 27.0289L13.2761 27.0277C8.64593 26.3158 5.7388 23.5467 4.05377 20.1584C2.3878 16.8085 1.90078 12.8404 2.01902 9.54661C2.01988 9.52259 2.02073 9.49876 2.02158 9.47512C2.05219 8.61666 2.07389 8.00828 2.37426 7.23107C2.6103 6.62035 3.11332 5.87028 3.58876 5.42011C4.19455 4.84652 4.87344 4.53941 5.83933 4.10248C5.87622 4.08579 5.91353 4.06891 5.95127 4.05182L10.9417 1.79209C10.9797 1.7749 11.0172 1.75792 11.0541 1.74117C11.9084 1.35403 12.4993 1.08624 13.1274 0.97838ZM14.4691 2.92841C14.1359 2.87119 13.7954 2.87119 13.4623 2.92841C13.1155 2.98795 12.7676 3.13727 11.7579 3.5945L6.76741 5.85423C5.65082 6.35983 5.2873 6.53662 4.94912 6.85683C4.68715 7.10488 4.34986 7.60782 4.2198 7.94434C4.04832 8.38803 4.02987 8.68317 3.99632 9.61759C3.88552 12.7041 4.35241 16.3156 5.82535 19.2774C7.27923 22.2008 9.69601 24.4754 13.5768 25.0721C13.7216 25.0944 13.7573 25.0996 13.8447 25.1049C13.8937 25.1079 14.0376 25.1079 14.0866 25.1049C14.174 25.0996 14.2098 25.0944 14.3546 25.0721C18.2353 24.4754 20.6521 22.2008 22.106 19.2774C23.5789 16.3156 24.0458 12.7041 23.935 9.61759C23.9015 8.68317 23.883 8.38802 23.7115 7.94434C23.5815 7.60782 23.2442 7.10488 22.9822 6.85683C22.644 6.53662 22.2805 6.35983 21.1639 5.85423L16.1735 3.5945C15.1637 3.13727 14.8158 2.98795 14.4691 2.92841Z" fill="#007AFF"/>
<path fill-rule="evenodd" clip-rule="evenodd" d="M12.7693 11.6201C12.7024 11.8232 12.5127 11.9605 12.2987 11.9605H9.84946C9.36793 11.9605 9.16943 12.578 9.56077 12.8586L11.5309 14.2712C11.7069 14.3973 11.7805 14.6231 11.7128 14.8288L10.9576 17.1224C10.8077 17.5777 11.3273 17.9593 11.7169 17.68L13.7124 16.2492C13.885 16.1255 14.1172 16.1255 14.2898 16.2492L16.2853 17.68C16.6749 17.9593 17.1945 17.5777 17.0446 17.1224L16.2894 14.8288C16.2217 14.6231 16.2954 14.3973 16.4713 14.2712L18.4415 12.8586C18.8328 12.578 18.6343 11.9605 18.1528 11.9605H15.7035C15.4896 11.9605 15.2998 11.8232 15.2329 11.6201L14.4717 9.30808C14.3222 8.85409 13.68 8.85409 13.5305 9.30808L12.7693 11.6201ZM16.7767 9.98197H18.1528C20.5574 9.98197 21.5486 13.0655 19.5944 14.4666L18.5094 15.2445L18.9239 16.5036C19.6725 18.7772 17.0778 20.6827 15.1325 19.288L14.0011 18.4768L12.8698 19.288C10.9245 20.6827 8.32973 18.7772 9.07831 16.5036L9.49288 15.2445L8.40789 14.4666C6.4537 13.0655 7.44489 9.98197 9.84946 9.98197H11.2256L11.6512 8.68931C12.3977 6.42225 15.6046 6.42224 16.351 8.68931L16.7767 9.98197Z" fill="#007AFF"/>
</svg>
