<svg width="28" height="28" viewBox="0 0 28 28" fill="none" xmlns="http://www.w3.org/2000/svg">
<path fill-rule="evenodd" clip-rule="evenodd" d="M10.8041 4.52512C8.92781 4.52512 7.3814 6.07316 7.3814 8.01432C7.3814 9.95547 8.92781 11.5035 10.8041 11.5035C12.6804 11.5035 14.2268 9.95547 14.2268 8.01432C14.2268 6.07316 12.6804 4.52512 10.8041 4.52512ZM5.3814 8.01432C5.3814 4.99684 7.79521 2.52512 10.8041 2.52512C13.813 2.52512 16.2268 4.99684 16.2268 8.01432C16.2268 11.0318 13.813 13.5035 10.8041 13.5035C7.79521 13.5035 5.3814 11.0318 5.3814 8.01432ZM16.7583 17.4781C16.4207 18.0666 16.2268 18.7522 16.2268 19.4867C16.2268 21.7034 17.9932 23.4747 20.1409 23.4747C20.8643 23.4747 21.5423 23.2753 22.1249 22.9254L16.7583 17.4781ZM15.9544 15.2571C14.8855 16.3426 14.2268 17.8399 14.2268 19.4867C14.2268 22.7797 16.8606 25.4747 20.1409 25.4747C21.7787 25.4747 23.2602 24.7995 24.3281 23.7156C25.3957 22.6319 26.055 21.1351 26.055 19.4867C26.055 16.1938 23.4212 13.4987 20.1409 13.4987C18.5011 13.4987 17.0229 14.1722 15.9544 15.2571ZM18.1574 16.0485L23.5233 21.4951C23.8612 20.906 24.055 20.2204 24.055 19.4867C24.055 17.2701 22.2886 15.4987 20.1409 15.4987C19.4192 15.4987 18.7405 15.6988 18.1574 16.0485ZM3.6706 15.7642C4.68878 14.8102 5.93301 14.4963 6.87281 14.4963H12.2509C12.8032 14.4963 13.2509 14.944 13.2509 15.4963C13.2509 16.0486 12.8032 16.4963 12.2509 16.4963H6.87281C6.33838 16.4963 5.61698 16.6812 5.03806 17.2237C4.48145 17.7452 3.94153 18.7053 3.94153 20.4843C3.94153 21.0366 3.49381 21.4843 2.94153 21.4843C2.38924 21.4843 1.94153 21.0366 1.94153 20.4843C1.94153 18.2729 2.63014 16.7391 3.6706 15.7642Z" fill="#007AFF"/>
</svg>
