<svg width="28" height="28" viewBox="0 0 28 28" fill="none" xmlns="http://www.w3.org/2000/svg">
<path d="M10.7918 25.666L10.3252 21.9329C10.0724 21.8356 9.83425 21.719 9.61065 21.5829C9.38705 21.4468 9.16832 21.3009 8.95444 21.1454L5.48379 22.6037L2.27563 17.0623L5.27964 14.7874C5.26019 14.6513 5.25047 14.5201 5.25047 14.3937V13.6062C5.25047 13.4798 5.26019 13.3486 5.27964 13.2125L2.27563 10.9376L5.48379 5.39626L8.95444 6.85451C9.16832 6.69896 9.39191 6.55314 9.62524 6.41703C9.85856 6.28093 10.0919 6.16427 10.3252 6.06705L10.7918 2.33392H17.2082L17.6748 6.06705C17.9276 6.16427 18.1657 6.28093 18.3893 6.41703C18.6129 6.55314 18.8317 6.69896 19.0456 6.85451L22.5162 5.39626L25.7244 10.9376L22.7204 13.2125C22.7398 13.3486 22.7495 13.4798 22.7495 13.6062V14.3937C22.7495 14.5201 22.7301 14.6513 22.6912 14.7874L25.6952 17.0623L22.487 22.6037L19.0456 21.1454C18.8317 21.3009 18.6081 21.4468 18.3748 21.5829C18.1414 21.719 17.9081 21.8356 17.6748 21.9329L17.2082 25.666H10.7918ZM12.8334 23.3328H15.1374L15.5457 20.2413C16.1485 20.0857 16.7075 19.8573 17.2227 19.5559C17.738 19.2545 18.2095 18.89 18.6372 18.4622L21.5246 19.658L22.662 17.6748L20.1538 15.779C20.251 15.5068 20.3191 15.22 20.358 14.9187C20.3969 14.6173 20.4163 14.311 20.4163 14C20.4163 13.6889 20.3969 13.3826 20.358 13.0813C20.3191 12.7799 20.251 12.4931 20.1538 12.2209L22.662 10.3252L21.5246 8.34193L18.6372 9.56686C18.2095 9.11967 17.738 8.74538 17.2227 8.44401C16.7075 8.14264 16.1485 7.91418 15.5457 7.75863L15.1666 4.66713H12.8626L12.4542 7.75863C11.8515 7.91418 11.2925 8.14264 10.7773 8.44401C10.262 8.74538 9.7905 9.10994 9.36275 9.5377L6.47541 8.34193L5.33797 10.3252L7.84617 12.1917C7.74895 12.4834 7.6809 12.775 7.64201 13.0667C7.60312 13.3583 7.58368 13.6694 7.58368 14C7.58368 14.311 7.60312 14.6124 7.64201 14.9041C7.6809 15.1957 7.74895 15.4874 7.84617 15.779L5.33797 17.6748L6.47541 19.658L9.36275 18.433C9.7905 18.8802 10.262 19.2545 10.7773 19.5559C11.2925 19.8573 11.8515 20.0857 12.4542 20.2413L12.8334 23.3328ZM14.0583 18.0831C15.186 18.0831 16.1485 17.6845 16.9457 16.8873C17.7428 16.0901 18.1414 15.1277 18.1414 14C18.1414 12.8722 17.7428 11.9098 16.9457 11.1126C16.1485 10.3154 15.186 9.91684 14.0583 9.91684C12.9112 9.91684 11.9439 10.3154 11.1564 11.1126C10.3689 11.9098 9.97522 12.8722 9.97522 14C9.97522 15.1277 10.3689 16.0901 11.1564 16.8873C11.9439 17.6845 12.9112 18.0831 14.0583 18.0831Z" fill="#A2ACB0"/>
</svg>
